<svg xmlns="http://www.w3.org/2000/svg" width="56" height="57" fill="none"><g fill="#2C9471" fill-rule="evenodd" stroke="#2C9471" stroke-miterlimit="10" stroke-width=".672" clip-path="url(#a)" clip-rule="evenodd"><path d="M5.63 43.45c-.008-.528-.01-1.056-.03-1.584a1.2 1.2 0 0 0-.112-.473 74 74 0 0 0-1.24-2.306 2.6 2.6 0 0 0-.545-.693q-.713-.611-.085-1.26c.69-.714 1.28-1.54 2.284-1.893.294-.103.567-.353.26-.738-.013-.016-.038-.047-.035-.05.594-.628-.115-1.532.554-2.22 1.135-1.17 2.11-2.495 3.21-3.7.578-.634 1.29-1.143 1.922-1.73.225-.209.364-.51.59-.715.416-.376.845-.746 1.31-1.056.606-.405 1.148-.812 1.49-1.513.24-.493.68-.94 1.134-1.266.601-.434.997-.924 1.2-1.649.254-.91.867-1.59 1.715-2.016.15-.075.45-.017.593.093.769.597 1.549 1.19 2.246 1.864.46.446.763 1.05 1.182 1.546.498.588.216 1.116-.137 1.561-1.107 1.397-2.202 2.813-3.42 4.11-1.31 1.394-2.753 2.661-4.139 3.982-.354.337-.756.633-1.065 1.006-1 1.209-1.968 2.445-2.955 3.678.525.307.85.101 1.18-.243.306-.322.667-.593 1.005-.886.315-.272.595-.555.462-1.032a.45.45 0 0 1 .027-.249c.146-.422 1.354-1.27 1.697-1.275.896-.917 1.57-1.941 2.784-2.39.248-.092.401-.422.613-.628 1.052-1.023 2.123-2.028 3.162-3.065 1.185-1.183 2.339-2.398 3.515-3.59.894-.905 1.817-1.783 2.692-2.707.202-.214.263-.562.388-.85.116-.263.176-.572.354-.784.996-1.188 2.01-2.364 3.047-3.518.198-.221.522-.333.793-.485.092-.051.232-.04.298-.108.957-.971 1.952-1.912 2.337-3.297.181-.655-.068-1.298-.541-1.5-.43-.183-1.18-.042-1.592.243-1.02.706-1.772.704-2.328-.401a7.7 7.7 0 0 1-.77-2.598c-.115-1.126.007-2.277.044-3.417.03-.914.515-1.623 1.153-2.203.176-.16.631-.174.88-.068 1.334.571 2.625 1.25 4.104 1.41.185.02.374.192.52.335.394.383.765.789 1.175 1.217.53-.551.835-.512 1.22.054.408.604 1.03 1.06 1.506 1.625.293.347.427.836.74 1.157 1.732 1.78 3.45 3.578 5.263 5.274 2.182 2.04 4.247 4.17 5.994 6.604.451.63.55 1.186.12 1.81-.838 1.212-1.755 2.36-3.007 3.175-1.089.71-1.734.513-2.214-.684-.258-.645-.53-1.242-1.123-1.665-.23-.164-.346-.481-.537-.71-.513-.61-1.04-1.21-1.557-1.817-.395-.464-.792-.928-1.173-1.403-.344-.43-.628-.914-1.012-1.302-.408-.413-.95-.582-1.536-.398-.61.192-1.21.415-1.787.696 1.666.43 2.765 1.592 3.895 2.67.778.74 1.456 1.59 2.156 2.409.659.77.612 1.093-.294 1.554-.686.35-1.424.6-2.264.944l2.12 2.55c.24-.538.394-.906.566-1.266.178-.374.432-.483.83-.27.676.362 1.451.588 2.034 1.058.56.45.98 1.104 1.363 1.729.354.575.616 1.215.851 1.852.4 1.083.103 1.567-1.002 1.867-.827.226-1.6.543-2.184 1.248-.592.715-1.309.723-2.293.098a76 76 0 0 1-2.337-1.565c-1.022-.704-1.867-.674-2.886-.013-.337.218-.848.345-1.236.275-1.369-.247-2.305.533-3.294 1.229-.002.037-.017.082-.002.11.49.896.336 1.157-.482 1.797-1.535 1.199-2.979 2.513-4.488 3.746-.905.738-1.866 1.406-2.792 2.118-.924.711-1.837 1.437-2.75 2.161-.075.06-.17.154-.175.237-.054.849-.864 1.124-1.283 1.693-.053.073-.29.089-.393.035-.424-.222-.73-.028-1.048.222-1.988 1.563-3.965 3.14-5.977 4.673-1.4 1.065-2.867 2.041-4.268 3.104-.745.565-1.43 1.21-2.11 1.852-.64.601-.978.687-1.77.296-.884-.438-1.391-1.158-1.537-2.131-.05-.335-.087-.672-.13-1.012-1.332.582-2.9-.824-2.529-2.294.11-.436-.057-.614-.354-.823-.583-.41-.972-.973-1.06-1.68-.031-.258.066-.633.247-.8 1.057-.98 2.157-1.913 3.243-2.862zM33.592 9.724c.1-.036.198-.097.3-.103.54-.033 1.133-.202 1.607-.037.56.196.89 1.153.62 1.725-.424.894-.976 1.73-1.508 2.568-.21.329-.514.598-.798.92 1.354 1.022 2.572 2.037 3.056 3.647-.687-1.312-1.688-2.332-2.869-3.218-.517-.388-.904-.328-1.28.093a214 214 0 0 0-3.124 3.574c-.44.515-.352.87.247 1.142.996.453 1.716 1.181 2.224 2.138.412.774.66.773 1.32.14.65-.625 1.36-1.186 2.026-1.759.459 1.176.93 2.227 1.261 3.32.115.377-.105.863-.202 1.292-.04.176-.164.333-.26.522 1.784 1.34 3.294 2.837 3.747 5.097-.696-2.095-2.088-3.632-3.859-4.865-.696.505-.703.513-.103 1.016 1.302 1.092 2.322 2.39 2.965 3.971.056.137.077.288.115.433-.26-.213-.384-.474-.5-.738-.609-1.381-1.57-2.487-2.693-3.47-.343-.3-.634-.268-.667.186-.095 1.251-1.04 1.845-1.842 2.574-.332.302-.544.243-.78-.073-.365-.493-.734-.983-1.05-1.404l-9.243 6.99c-.186-.281-.395-.475-.453-.707-.13-.53-.43-1.105.055-1.605a274 274 0 0 1 3.914-3.971c.16-.158.453-.186.688-.263.34-.112.646-.218.55-.698-.033-.165.027-.417.141-.533 1.52-1.534 3.065-3.045 4.58-4.583.13-.133.202-.468.128-.632a4.22 4.22 0 0 0-2.052-2.122c-.369-.18-.6-.156-.882.147a94 94 0 0 1-2.32 2.395 3385 3385 0 0 1-7.44 7.431c-.148.148-.314.3-.502.386-1.105.499-1.876 1.33-2.506 2.393-.853-.3-1.11.635-1.695.97-.055.032-.08.221-.04.294.255.47-.063.703-.357.96-.386.339-.805.65-1.138 1.037-.73.848-1.625.54-2.527.441 1.133-.227 1.47-1.243 2.076-1.982.61-.744 1.172-1.537 1.85-2.212a123 123 0 0 1 4.423-4.193c1.651-1.489 2.987-3.233 4.228-5.055.163-.24.175-.707.06-.989-.534-1.32-1.68-2.126-2.711-3.013-.839-.721-1.36-.665-1.977.287-.547.842-.961 1.772-1.444 2.682l1.814 2.008-.148.132-1.919-2.05c-1.197.464-1.32 1.782-2.225 2.487l1.803 2.005-.153.132c-.517-.555-1.016-1.13-1.563-1.655-.134-.13-.487-.21-.626-.126-.463.28-.943.587-1.29.993-.67.783-.632.812.046 1.554.311.34.61.692.915 1.038l-.144.124-1.643-1.753c-.958.9-1.898 1.706-2.745 2.601-.743.787-1.377 1.677-2.07 2.512-.3.363-.676.677-.308 1.227.07.103-.07.35-.119.53-.038.14-.17.332-.12.404.421.604-.112.766-.443 1.027-.666.525-1.38 1.002-1.98 1.592-.631.621-.575.695.036 1.337.174.182.3.415.426.637.422.743.845 1.486 1.239 2.244.09.173.07.403.094.607q.073.645.136 1.29c.015.156.084.383.01.458-.907.905-1.791 1.84-2.771 2.659-.75.626-.866.742-.365 1.62.174.306.42.606.706.803.41.284.618.512.443 1.08-.243.791.152 1.472.969 1.97.652.397 1.185.063 1.704-.302.315-.222.616-.464.936-.679.115-.078.268-.102.403-.15l.108.2c-.303.204-.63.379-.9.618-.242.214-.577.487-.598.756-.09 1.103.361 2.357 1.631 2.85.425.165.776.134 1.115-.195.399-.385.81-.763 1.248-1.102 1.164-.905 2.35-1.781 3.518-2.68 2.68-2.058 5.351-4.126 8.036-6.178a1 1 0 0 1 .622-.191c.666.056 1.613-.648 1.756-1.303.047-.219.187-.462.36-.6 1.425-1.127 2.867-2.233 4.304-3.345.405-.313.817-.618 1.21-.946 1.474-1.23 2.92-2.497 4.421-3.694.904-.72.944-.692.27-1.637-.018-.023-.003-.069-.003-.102.338-.228.69-.438 1.008-.687.703-.552 1.462-.822 2.38-.758.474.034 1.024-.061 1.435-.288.987-.544 1.921-.675 2.898-.038.913.595 1.819 1.206 2.75 1.772.824.502 1.359.372 1.984-.324.247-.275.563-.517.895-.68.477-.235.985-.44 1.503-.554.556-.123.76-.472.608-.922a20 20 0 0 0-1.084-2.632c-.25-.5-.598-1.024-1.043-1.334-.623-.433-1.383-.665-2.072-1.006-.303-.15-.477-.085-.605.212-.174.406-.358.808-.64 1.439l-2.653-3.153c1.029-.388 1.957-.736 2.883-1.09.421-.16.413-.45.182-.76-.217-.287-.489-.535-.695-.83-1.112-1.576-2.54-2.82-4.137-3.867-1.01-.663-1.26-.546-1.746.57-.024.054-.076.096-.116.145l-.79-.77c.351-.274.696-.602 1.094-.844 1.782-1.082 3.103-1.504 4.572.368l1.861-1.61.13.143c-.463.42-.896.881-1.397 1.25-.462.34-.467.675-.132 1.054.573.65 1.173 1.276 1.791 1.945l2.135-1.86.133.147-2.074 1.883 1.851 2.38 1.987-1.725q.067.076.133.153-.63.567-1.261 1.132c-.804.718-.82.82-.241 1.749.27.43.604.633 1.126.373 1.64-.817 2.743-2.15 3.583-3.725.106-.197.074-.572-.05-.767a21 21 0 0 0-1.454-2.034c-2.398-2.918-5.26-5.376-7.952-8.004-.81-.79-1.761-1.543-2.264-2.512-.605-1.169-1.874-1.66-2.31-2.895l-.675.397c-.432-.27-1.016-.429-1.177-.781-.274-.601-.698-.708-1.23-.844-1-.256-1.981-.58-2.979-.879.895 2.545 1.168 5.116.36 7.737-.04-.12-.126-.248-.11-.36.052-.336.169-.663.213-1 .276-2.107.14-4.17-.674-6.163-.37-.903-.74-.992-1.356-.194a3.8 3.8 0 0 0-.663 1.417c-.375 1.612-.19 3.24.133 4.828.127.628.518 1.267.955 1.752.504.558 1.092.376 1.492-.31Zm1.413 11.463.28-.148c-.021.005-.044.005-.06.015-1.045.655-1.658 1.968-3.093 2.033-.052.002-.103.072-.148.117q-2.294 2.265-4.577 4.54a.4.4 0 0 0-.093.329c.18.675-.288.84-.762 1.028-.283.113-.605.215-.811.42-1.17 1.168-2.308 2.367-3.459 3.552-.515.53-.461 1.366.153 1.9 1.725-1.292 3.468-2.572 5.184-3.888 1.176-.904 2.317-1.855 3.467-2.794.293-.24.521-.235.75.08.355.492.725.975 1.141 1.532.798-.795 1.83-1.267 2.002-2.556.071-.538.544-1.02.822-1.534.316-.586.899-1.145.604-1.86-.393-.952-.927-1.846-1.4-2.766Z"/><path d="M8.282 50.628q.263-.207.527-.409l23.78-17.93c.961-.726 1.936-.36 2.2.913-.139-.192-.267-.392-.416-.577-.493-.614-.959-.674-1.578-.207l-23.78 17.93c-.199.15-.406.287-.61.43zM4.212 49.09 22.595 35.45l.135.182-18.382 13.64zM15.597 40.313c-.335-.41-.317-.678.05-.98.36-.296.612-.723.978-1.007.179-.14.507-.086.768-.12-.03.307.056.744-.114.9-.496.456-1.095.8-1.682 1.207Zm1.45-2.052-1.573 1.619c1.037-.271 1.83-1.026 1.573-1.619ZM38.014 15.241c-.488.303-.893.66-1.365.817-.511.17-.931-.278-.717-.771.191-.437.541-.858.93-1.133.216-.154.739-.11.963.059.181.136.122.59.189 1.028Zm-.249-.196c-.026-.252.029-.578-.092-.667-.16-.119-.51-.143-.682-.043a2.4 2.4 0 0 0-.769.733c-.104.155-.108.552-.002.632.16.118.5.14.683.045.309-.159.555-.44.862-.7ZM31.493 4.053c-.025-.338-.117-.588-.031-.736.068-.119.352-.113.54-.162.053.202.186.43.132.6-.038.12-.326.161-.641.298ZM32.252 5.089c-.075-.323-.205-.558-.143-.717.05-.127.418-.273.496-.213.146.109.266.376.238.552-.02.123-.303.204-.591.377ZM31.937 4.803c.076.288.222.542.15.647-.1.146-.363.182-.556.265-.067-.199-.217-.419-.174-.59.03-.124.317-.186.58-.322ZM32.288 6.797c-.05-.329-.16-.573-.087-.727.06-.124.344-.14.53-.204.066.199.216.419.174.59-.03.125-.317.186-.617.341ZM32.045 6.68c.095.283.256.525.193.634-.09.153-.348.207-.534.303-.084-.193-.25-.4-.221-.575.02-.124.303-.205.561-.361ZM32.98 7.519c.075.288.22.542.15.647-.102.146-.364.181-.558.264-.067-.2-.216-.42-.173-.591.03-.125.318-.185.582-.32Z"/></g><defs><clipPath id="a"><path fill="#fff" d="M0 .357h56v56H0z"/></clipPath></defs></svg>