<svg xmlns="http://www.w3.org/2000/svg" width="56" height="57" fill="none"><path fill="#2C9471" fill-rule="evenodd" stroke="#2C9471" stroke-miterlimit="10" stroke-width=".672" d="M17.884 54.831c0-2.577.004-5.154-.006-7.732a14 14 0 0 0-.102-1.541c-.017-.144-.163-.272-.276-.448.467-.261.235-.672.185-1.094a23 23 0 0 1-.151-2.453c-.005-.531.134-1.063.14-1.595.019-1.677.009-3.355.002-5.033-.003-.67.028-1.316-.465-1.916-.255-.31-.262-.866-.288-1.316-.082-1.409-.348-2.86-.107-4.218.223-1.258-.096-2.414-.102-3.614-.003-.488-.208-1.001-.426-1.453a1.56 1.56 0 0 0-.715-.685c-1.08-.483-2.187-.468-3.332-.147-.651.183-1.177.447-1.683.904-.231.209-.856.235-1.146.07-.499-.284-.969-.701-1.073-1.364-.194-1.233-.418-2.46-.613-3.694-.161-1.021-.239-2.042.094-3.054.229-.697.97-1.013 1.629-.673 1.627.838 3.373 1.097 5.176.983.21-.013.4-.339.615-.532-.077-.047-.102-.07-.13-.078-1.124-.298-1.282-.823-.438-1.631.42-.403.9-.767 1.408-1.05 1.718-.962 3.464-1.873 5.192-2.816.71-.388 1.416-.79 2.1-1.223 1.05-.666 2.106-1.33 3.113-2.06 1.6-1.16 3.437-1.524 5.333-1.822 2.092-.33 4.143-.023 6.19.26 1.305.182 2.524.03 3.772-.3C43.682 3 45.604 2.567 47.516 2.1c.195-.048.38-.134.571-.203q.39-.078.312.312c-1.946.465-3.922.834-5.83 1.422-2.01.619-3.995.65-6.025.283-2.393-.43-4.756-.202-7.088.38-.676.17-1.31.514-1.95.807a5 5 0 0 0-.84.514c-2.885 2.074-6.024 3.708-9.165 5.346-.853.445-1.654 1.006-2.425 1.585-.285.213-.416.63-.616.955.338.14.67.366 1.017.397.469.041.974.008 1.422-.127 2.232-.673 4.449-1.395 6.675-2.086a2.7 2.7 0 0 1 .811-.104c2.16.018 4.321.131 6.476.053 2.414-.087 4.666-.903 6.855-1.882a.9.9 0 0 1 .537-.07c-1.83 1.053-3.81 1.682-5.86 2.095l.718 1.017c.188-.56.549-.997 1.178-1.12 1.082-.213 1.935.683 1.74 1.833-.095.561-.236 1.115-.347 1.674-.094.473-.24.95-.24 1.425 0 .469.157.938.256 1.47.726-.536.99-1.313 1.065-2.132.075-.802.016-1.616.016-2.415 1.128-.358 8.557-1.33 8.89-1.073l-8.476 1.251c-.074.945-.098 1.841-.228 2.721-.113.767-.505 1.404-1.101 1.944-.222.201-.254.63-.338.963-.116.463-.162.947-.313 1.396-.072.211-.296.4-.494.533-.256.174-.573.258-.834.426a1.5 1.5 0 0 1-2.036-.363c-.099-.137-.18-.287-.3-.483-.343.603-.738 1.077-1.469 1.09-.704.012-1.145-.374-1.471-.959-.771 1.212-2.126 1.408-3.016-.134-.119.55-.285 1.063-.331 1.586-.126 1.445-1.612 2.169-2.832.97-.069.177-.166.323-.18.478q-.119 1.332-.197 2.669a.68.68 0 0 0 .124.439c.332.404.282.873.262 1.332-.06 1.322-.108 2.645-.225 3.962-.03.34-.299.658-.453.989-.056.116-.139.24-.14.36-.008 2.403-.005 4.806-.005 7.292.735-.112 1.402.186 2.162-.133.953-.4 1.902.246 1.89 1.29-.006.483.098.967.089 1.45-.036 1.777.32 3.513.498 5.268.086.85-.13 1.727-.146 2.593-.01.643.064 1.289.136 1.929.057.508.167 1.011.253 1.517h-.415c-.011-.137-.011-.276-.035-.411-.227-1.29-.465-2.566-.109-3.886.126-.465.08-1.007-.005-1.494a46 46 0 0 1-.67-7.025c-.013-.686-.596-1.208-1.2-.938-.679.303-1.31.242-2.007.191-1.186-.088-2.384-.02-3.576-.05-.456-.012-.652.173-.617.603.085 1.038.185 2.076.282 3.131h3.198c-.08-1.164-.08-1.164 1.048-1.199q.208-.007.415-.012c.703-.003.935.19 1.01.894.098.94.204 1.88.253 2.823.113 2.17.663 4.304.525 6.494-.018.291.022.585.035.878h-.415q.003-1.254.004-2.509c0-.12-.015-.24-.028-.359-.128-1.102-.267-2.202-.384-3.306a195 195 0 0 1-.406-4.13c-.035-.412-.29-.485-.595-.474-.388.015-.775.084-1.267.142.115.217.176.402.293.538.26.3.274.747.028 1.073-.106.142-.23.322-.228.484.02 2.847.058 5.694.092 8.542h-.416c-.004-1.677-.048-3.355 0-5.029.044-1.496-.229-3.01.202-4.489h-3.212v9.517zm3.854-27.845c.06.357-.18.334-.415.333-1.245-.002-2.49.006-3.735-.006-.313-.003-.524.082-.506.421q.123 2.325.27 4.65c.026.418.252.579.689.565.985-.03 1.973-.04 2.957.003.542.024.764-.188.791-.694.08-1.449.184-2.897.23-4.347.01-.302-.188-.61-.29-.915.077-1.17.042-2.362.254-3.508.517-2.783 1.15-5.546 1.735-8.316.04-.192.076-.386.126-.643-.97.134-1.854.28-2.742.376-1.53.166-3.114.062-4.499.929-.043.027-.096.037-.145.054-.78.256-1.451.052-2.076-.453a1.5 1.5 0 0 0-.69-.29c-.866-.14-1.748-.188-2.602-.377-.711-.157-1.39-.462-2.179-.734l1.358 8.345c.554-.79 1.26-.964 1.979-1.176 1.16-.343 2.275-.26 3.387.136.518.184.914.551 1.04 1.078.23.951.409 1.918.558 2.886.085.554.069 1.124.098 1.681 1.51 0 2.959 0 4.407.002ZM18.041 40.93c.906 0 1.75-.026 2.592.01.495.023.657-.121.64-.634-.04-1.104-.008-2.21-.007-3.315q.002-1.855 0-3.718h-3.225zM30.033 21.64c.654 0 1.072-.391 1.235-1.162q.414-1.95.82-3.901c.222-1.065.466-2.125.648-3.197.153-.894-.5-1.543-1.363-1.422-.519.073-.88.453-1.018 1.099-.255 1.198-.5 2.399-.75 3.598-.238 1.132-.49 2.26-.713 3.395-.179.913.32 1.59 1.14 1.59Zm5.735-8.28c.034-.758-.362-1.287-.93-1.397-.622-.12-1.214.194-1.384.807-.188.681-.307 1.381-.455 2.073-.362 1.705-.736 3.407-1.073 5.117-.063.323-.045.699.06 1.007.17.492.683.727 1.223.665.519-.06.901-.41 1.032-1.014.309-1.416.595-2.837.893-4.256.219-1.048.441-2.094.634-3.003Zm-9.339 2.044c.027-.739-.378-1.266-.949-1.368-.622-.11-1.21.207-1.371.825-.221.851-.38 1.719-.562 2.58-.327 1.535-.656 3.071-.975 4.609-.184.885.209 1.559.949 1.656.72.096 1.238-.313 1.41-1.127.284-1.334.561-2.669.84-4.004.229-1.098.456-2.196.658-3.17Zm-.481 4.849c-.044.955.693 1.573 1.494 1.355.544-.148.804-.555.913-1.084q.423-2.05.852-4.101c.208-.995.442-1.986.617-2.988.174-.994-.474-1.6-1.466-1.418-.616.112-.811.577-.923 1.11q-.459 2.175-.915 4.351c-.2.962-.397 1.924-.572 2.775Zm-9.137-6.131c.31.371.372.89 1.01.746.563-.126 1.152-.14 1.73-.197.802-.08 1.602-.164 2.405-.227 1.634-.127 3.183-.921 4.87-.618.045.008.098-.028.121-.035l.581-1.836c-.575 0-1.168.073-1.736-.014-1.346-.207-2.587.122-3.839.545-1.679.566-3.377 1.077-5.142 1.636Zm-8.165.092-.173-.07c-.117.191-.297.368-.338.574-.08.398-.15.82-.104 1.218.2 1.745.411 3.49.688 5.224.106.665.661 1.1 1.237 1.124zm8.481 1.04c-.107-.143-.208-.259-.29-.388-.339-.538-1.174-.58-1.57-.094-.153.188-.363.329-.549.493.508.628 1.58.553 2.409-.011Zm17.368 5.591c.553-.227.962-2.183.683-3.24zm-4.377-8.196.405-.638h-.805z" clip-rule="evenodd"/><path fill="#2C9471" fill-rule="evenodd" stroke="#2C9471" stroke-miterlimit="10" stroke-width=".672" d="M23.714 43.32v-.734l.117-.076c.13.152.342.293.365.46.017.127-.205.286-.32.432zM18.413 24.5c.007-.751.51-1.397 1.104-1.417.613-.02 1.148.632 1.16 1.413.012.777-.494 1.448-1.104 1.469-.63.02-1.168-.658-1.16-1.465Zm1.97.01c-.006-.613-.39-1.131-.839-1.131s-.832.52-.837 1.133c-.005.607.369 1.14.812 1.158.465.019.869-.524.863-1.16Z" clip-rule="evenodd"/></svg>