<svg width="32" height="29" viewBox="0 0 32 29" fill="none" xmlns="http://www.w3.org/2000/svg">
<g clip-path="url(#clip0_1_200)">
<path d="M23 4.48242H2C1.44772 4.48242 1 4.93014 1 5.48242V26.4824C1 27.0347 1.44772 27.4824 2 27.4824H23C23.5523 27.4824 24 27.0347 24 26.4824V5.48242C24 4.93014 23.5523 4.48242 23 4.48242Z" stroke="#2C9471" stroke-width="2"/>
<path d="M30.4049 0.546761C25.0718 2.30073 18.273 6.99159 12.0035 15.0272L8.2988 10.9074C7.72885 10.2548 6.67036 10.2548 6.1004 10.9074L3.37276 13.9667C2.84352 14.5785 2.88423 15.4759 3.45418 16.0062L11.8407 24.0826C12.5328 24.7353 13.6727 24.5721 14.1612 23.7155C18.6394 15.5983 23.4433 9.56136 31.5855 2.62705C32.5626 1.77046 31.667 0.138861 30.4049 0.546761Z" fill="#006F4A"/>
</g>
<defs>
<clipPath id="clip0_1_200">
<rect width="32" height="28" fill="white" transform="translate(0 0.482422)"/>
</clipPath>
</defs>
</svg>
