<svg xmlns="http://www.w3.org/2000/svg" width="56" height="57" fill="none"><path fill="#2C9471" fill-rule="evenodd" stroke="#2C9471" stroke-miterlimit="10" stroke-width=".672" d="M47.587 4.774c1.43.056 2.862.173 4.291.153 1.576-.022 1.694.435 2.15 1.617.712 1.846.98 3.783.88 5.775-.075 1.502-.985 2.265-2.443 1.948a2.6 2.6 0 0 0-.48-.064c-2.17-.06-4.343-.082-6.512-.184-1.068-.05-2.136-.204-3.192-.383-.773-.132-1.516-.553-2.313-.101-.062.035-.16.009-.24.01-.534.001-1.15-.373-1.558.238-.5.745-1.116 1.431-1.02 2.46.08.874.114 1.714.395 2.59.541 1.687.688 3.47.598 5.258-.017.348-.002.697-.002 1.065 1.155-.394 1.442-.189 1.461 1.007.011.704-.02 1.41.008 2.113.035.938.003 1.78-.905 2.422-.339.24-.513.899-.526 1.373-.02.796.182 1.594.23 2.395.046.77-.023 1.548.027 2.318.313 4.837.646 9.673.963 14.509.014.213-.06.432-.093.648l-.254-.01c-.033-.217-.082-.432-.097-.65-.368-5.268-.73-10.536-1.097-15.803-.073-1.052-.131-2.106-.247-3.154-.11-.994.155-1.821 1.01-2.357.435-.273.544-.586.53-1.061-.029-1.102-.009-2.206-.009-3.363-1.205.204-1.236 1.26-1.688 2.065-2.082-.81-4.133-.722-6.154.137-.086-.306-.115-.548.304-.658 1.687-.441 3.368-.745 5.095-.195.733.233 1.01-.019.977-.812-.059-1.37-.042-2.75-.2-4.11-.141-1.23-.06-2.541-.882-3.615l.014.02c-.023-.731-.02-1.463-.075-2.191-.098-1.291.596-2.19 1.461-2.992.221-.204.556-.387.846-.4 1.126-.045 2.256-.018 3.457-.018-.022-.427-.05-1.038-.086-1.649-.083-1.413-.084-1.413.302-1.652.08 1.034.135 2.024.248 3.008.029.254.21.678.368.7 1.076.148 2.165.21 3.323.305-.103-1.266-.2-2.316-.267-3.368-.013-.208.086-.422.133-.634l.261.047c.096 1.13.179 2.262.3 3.39.022.203.178.539.311.56.971.145 1.952.227 2.965.332.06-1.549-.325-2.926-.17-4.292l.33-.004.37 4.208c.71 0 1.302-.043 1.885.01 1.138.102 1.647-.25 1.723-1.392.138-2.058-.243-4.043-.967-5.967-.216-.573-.614-.85-1.24-.852-3.843-.009-7.694-.18-11.53-.01-5.471.242-10.931.64-16.4.022-.356-.04-1.81 1.324-1.73 1.666.057.233.25.497.457.618.488.284 1.001.562 1.54.713 1.21.338 1.783 1.262 2.224 2.298.312.733.052 1.356-.655 1.755-.028-.103-.105-.24-.07-.282.735-.88.215-1.586-.262-2.346-.535-.854-1.47-.946-2.257-1.326-.847-.41-1.716-.798-1.37-2.11-.471-.035-.93-.211-1.246-.07-1.293.579-2.544 1.253-3.82 1.898.058.073.07.102.09.11.125.049.25.1.379.136 3.248.921 5.057 3.27 6.198 6.27.061.163-.016.378-.03.568-.49-.65-.775-1.293-1.078-1.927q-1.673-3.51-5.43-4.527c-.157-.043-.325-.075-.462-.154-.797-.462-1.45-.367-2.019.31-.89 1.059-.612 3.21.582 4.427l.802-.296c.021.268-.05.39-.139.499-.097.12-.21.226-.337.359 1.767 2.104 3.976 3.288 6.664 3.555.91.09 1.818-.48 1.798-1.257-.027-1.067.525-1.684 1.127-2.454.65-.831 1.283-.759 1.932-.375.576.34 1.197.852 1.453 1.439.637 1.459 1.798 2.843 1.072 4.635-.046.112.007.268.03.401.25 1.383.505 2.765.752 4.148.114.639.164 1.293.331 1.916.147.55.417 1.066.633 1.597.119 1.32.183 2.648.379 3.957.111.746.576 1.447.643 2.19.252 2.8.408 5.61.599 8.417.198 2.92.399 5.839.589 8.759.019.292-.028.588-.044.882l-.27-.005c-.036-.19-.093-.38-.106-.572-.38-5.488-.736-10.977-1.152-16.462-.067-.877-.176-1.75-.675-2.598-.39-.664-.319-1.606-.428-2.427-.082-.612-.068-1.242-.199-1.842-.345-1.584-.765-3.151-1.12-4.733-.354-1.573-.599-3.13-.383-4.785.102-.782-.49-1.656-.778-2.484-.053-.15-.168-.278-.233-.426-.402-.904-.927-1.656-2.072-1.672-.204.219-.398.537-.68.71-.614.371-.769.881-.757 1.563.02 1.14-.909 2.059-2.053 2.058-2.31-.002-4.33-.853-6.03-2.36-1.639-1.452-1.593-1.504-3.373-.279q-1.84 1.269-3.684 2.532c-.202.138-.42.252-.711.256.75-.989 1.84-1.535 2.802-2.235 1.001-.729 2.035-1.412 2.86-1.981-.356-1.31-.696-2.444-.965-3.594-.228-.974.835-2.346 1.76-2.58 1.128-.286 2.228-.696 3.314-1.12.647-.254 1.225-.682 1.87-.943.315-.128.713-.071 1.073-.067.587.008 1.267.282 1.451-.659.025-.129.395-.28.597-.27 1.207.064 2.412.186 3.618.26.729.044 1.46.046 2.191.049 1.843.005 3.688.043 5.53-.011 3.454-.103 6.908-.261 10.361-.4.133-.005.264-.055.395-.084z" clip-rule="evenodd"/><path fill="#2C9471" fill-rule="evenodd" stroke="#2C9471" stroke-miterlimit="10" stroke-width=".672" d="M1.072 15.346c3.548-1.302 7.095-2.605 10.645-3.899.248-.09.522-.104.784-.153l.06.261c-.233.106-.46.226-.7.315-3.316 1.233-6.633 2.468-9.958 3.677-.24.088-.553-.021-.831-.039zM16.636 26.283l4.594-7.385c.189.754-3.82 7.263-4.594 7.385ZM34.722 15.106c0 .916-.61 1.7-1.309 1.683-.668-.017-1.244-.77-1.261-1.65-.018-.908.574-1.712 1.267-1.723.7-.011 1.303.77 1.303 1.69Zm-.44-.032c-.098-.5-.15-1.158-.834-1.164-.678-.006-.82.621-.824 1.18-.005.561.133 1.189.802 1.202.688.014.763-.633.855-1.218ZM36.595 18.354c-.24.06-.521.234-.711.163-1.708-.64-3.398-.458-5.097.015-.215.06-.46.008-.691-.104 2.161-.883 4.328-1.148 6.51-.058zM16.5 12.537c-.257-.344-.684-.667-.73-1.038-.069-.551.428-.932.945-.81.353.083.854.523.863.815.01.338-.45.688-.706 1.033zm.906-.975c-.353-.221-.527-.413-.709-.42-.157-.006-.322.197-.484.308.14.16.259.42.423.453.17.033.382-.157.77-.341ZM18.79 13.027c-.261-.341-.693-.66-.744-1.03-.075-.55.418-.937.937-.82.353.08.86.514.871.806.013.339-.442.694-.694 1.043zm.21-1.598c-.237.263-.38.42-.522.579.167.137.322.356.505.383.132.02.43-.22.426-.337-.006-.175-.211-.343-.41-.625ZM18.834 13.114c.252.347.675.675.716 1.045.062.551-.437.93-.953.801-.351-.087-.85-.532-.854-.824-.005-.338.459-.683.72-1.025zm.523.976c-.386-.185-.583-.356-.77-.345-.151.01-.289.239-.433.37.164.14.319.373.495.39.166.018.354-.194.708-.415ZM20.934 15.308c-.271-.335-.711-.641-.773-1.011-.093-.55.391-.947.912-.843.356.07.87.489.893.783.026.334-.419.704-.66 1.059zm.862-.995c-.357-.214-.536-.402-.718-.406-.156-.003-.317.205-.475.32.143.156.27.412.436.441.169.03.377-.164.757-.355ZM32.913 8.955c.293.434.655.747.601.946-.074.27-.466.455-.722.677-.203-.245-.563-.488-.567-.737-.004-.24.358-.486.688-.886ZM33.833 7.28c.309.442.647.715.625.953-.024.248-.397.462-.616.691-.237-.238-.61-.448-.664-.722-.04-.205.332-.491.655-.921ZM35.967 9.928c-.445.303-.752.664-.956.613-.272-.07-.464-.457-.69-.707.242-.207.478-.565.729-.576.24-.01.495.341.917.67ZM32.891 11.559c-.447.314-.744.676-.948.63-.273-.064-.473-.443-.704-.686.236-.21.462-.57.713-.588.237-.017.5.324.94.644ZM33.105 8.273c-.442.304-.713.634-.943.607-.245-.028-.452-.393-.676-.611.235-.235.441-.604.713-.66.196-.041.479.333.906.664ZM30.794 8.712c.291.452.616.734.581.962-.036.242-.464.64-.63.6-.271-.067-.603-.409-.653-.682-.035-.193.352-.464.702-.88ZM34.545 11.566c-.45.313-.748.67-.943.62-.268-.068-.458-.444-.681-.689.231-.208.452-.565.696-.581.232-.016.49.323.928.65Z" clip-rule="evenodd"/></svg>