<svg width="56" height="57" viewBox="0 0 56 57" fill="none" xmlns="http://www.w3.org/2000/svg">
<path fill-rule="evenodd" clip-rule="evenodd" d="M41.3186 1.92773C41.3186 3.45676 41.3186 4.98601 41.3186 6.79189C42.2679 6.67945 43.0819 6.64674 43.8657 6.4765C45.5108 6.11922 46.3763 6.79033 46.5154 8.46406C46.7515 11.303 47.0667 14.1348 47.3485 16.9702C47.37 17.1812 47.4056 17.3925 47.408 17.6037C47.4992 25.9387 47.9421 34.2839 46.237 42.5454C45.7905 44.7099 45.711 46.9549 45.539 49.1682C45.4483 50.3321 44.9095 50.7595 43.788 50.6486C42.6102 50.5322 42.0894 49.9529 42.2545 48.7565C42.6209 46.0938 42.9943 43.432 43.3156 40.7635C43.6372 38.0928 43.9947 35.4204 44.1621 32.7378C44.3623 29.5176 44.5453 26.2806 44.4291 23.0619C44.2982 19.4351 43.8843 15.8133 43.4332 12.2091C43.3722 11.7246 42.3748 11.357 41.8678 10.9776C41.6461 12.3339 41.3977 13.2937 41.3511 14.2632C41.274 15.8514 41.2028 17.4581 41.3571 19.0346C41.5825 21.3373 40.5319 23.8065 42.1933 25.9356C42.2473 26.005 42.2598 26.1627 42.2195 26.2425C41.4646 27.7292 42.1017 29.1921 42.1877 30.6835C42.2632 31.9905 42.9086 33.5789 41.339 34.6143C41.2111 34.698 41.2868 35.1091 41.287 35.368C41.2958 41.8412 41.3072 48.3139 41.3184 54.787C41.1062 54.787 40.8937 54.787 40.6815 54.787C40.6652 51.4035 40.6423 48.02 40.6336 44.6365C40.6251 41.4729 40.6318 38.3103 40.6318 35.1552C39.3169 35.1552 38.2964 35.1552 37.4972 35.1552C37.4972 41.7915 37.4972 48.289 37.4972 54.7873C37.1786 54.7873 36.8601 54.7873 36.5418 54.7873C36.5458 48.4763 36.5138 42.1646 36.5781 35.8546C36.5947 34.1963 35.4093 33.8739 34.3123 33.4759C33.3343 33.1209 32.2842 32.913 31.2482 32.7887C30.712 32.7242 30.1381 33.0736 29.5801 33.0774C27.3264 33.0942 25.0696 33.1108 22.8193 33.0102C20.2306 32.8933 17.6494 32.609 15.0609 32.4809C13.4055 32.3989 11.7284 32.5918 10.0908 32.4025C9.51799 32.3364 9.02967 31.5022 8.51671 31.0041C8.46093 30.9501 8.49655 30.7995 8.49386 30.6938C8.33169 24.2697 8.95486 24.9462 15.1684 25.2851C18.6942 25.4773 22.2002 26.0147 25.719 26.3572C26.4508 26.4284 27.2265 26.4461 27.9339 26.2812C29.2201 25.9809 30.2342 26.2293 30.8388 27.1909C31.8477 27.0361 32.7139 26.8394 33.589 26.7828C35.1443 26.6822 36.2486 25.4598 36.1971 23.8853C36.0853 20.5032 36.0156 17.1199 35.9224 13.7368C35.814 9.80044 35.6984 5.86431 35.5862 1.92818C35.9047 1.92818 36.2233 1.92818 36.5416 1.92818C36.5416 3.1669 36.5416 4.40585 36.5416 5.65823C37.9622 5.65823 39.2482 5.65823 40.6811 5.65823C40.6811 4.3382 40.6811 3.1333 40.6811 1.92818C40.8941 1.92773 41.1065 1.92773 41.3186 1.92773ZM37.2727 31.8071C36.3581 30.5195 35.5403 29.5765 34.9727 28.5011C34.5354 27.6727 34.0373 27.1994 33.1379 27.4232C31.8125 27.7529 30.4875 28.3859 29.424 26.8981C29.3657 26.8166 29.1205 26.8701 28.9621 26.8596C23.8473 26.5068 18.7313 26.1625 13.6172 25.7987C9.28682 25.4905 8.78103 26.0133 9.0505 30.3764C9.12689 31.6167 9.74535 31.9054 10.8268 31.7527C11.6545 31.6362 12.4878 31.5011 13.3199 31.4913C14.4491 31.4771 15.5794 31.5739 16.731 31.6243C16.9364 30.4947 17.0941 29.6258 17.2897 28.5486C18.1989 29.7304 16.5005 31.2811 18.1709 31.8156C19.212 32.1489 20.4037 32.0114 21.498 32.0835C21.7271 31.0061 21.8976 30.2044 22.1355 29.0859C22.8373 30.4315 21.2229 32.1935 23.5724 32.5358C25.8588 32.8682 26.4461 31.5921 26.4358 29.4994C26.5823 29.5929 26.729 29.6856 26.8758 29.7781C26.8256 30.5227 26.7752 31.2668 26.7216 32.0598C28.1687 32.6881 29.4974 32.8908 30.4909 31.7065C32.5365 32.333 34.4617 32.9224 36.475 33.5391C36.766 32.9074 37.0953 32.1922 37.2727 31.8071ZM41.2935 10.5925C42.5573 10.7014 43.8993 10.2431 44.0628 11.9676C44.3775 15.2862 45.0256 18.6066 44.9819 21.9186C44.9022 27.9498 44.4987 33.9815 44.068 40.0012C43.8603 42.8996 43.2416 45.7679 42.9233 48.6622C42.8781 49.0706 43.4845 49.551 43.7891 49.9981C44.1836 49.6518 44.8647 49.3494 44.9246 48.9525C45.25 46.8073 45.2556 44.6047 45.6765 42.4825C47.2656 34.4752 47.0165 26.3841 46.859 18.3064C46.7932 14.9361 46.323 11.5678 45.888 8.2181C45.8322 7.78578 44.8968 7.19666 44.3379 7.16149C43.3937 7.10146 42.4252 7.42604 41.3674 7.60569C41.3479 7.89801 41.3067 8.31375 41.2964 8.73039C41.2828 9.30495 41.2935 9.87996 41.2935 10.5925ZM36.7163 34.4326C37.8542 34.4326 38.5282 34.4375 39.2018 34.4322C41.1468 34.4149 41.7989 33.906 41.5119 31.9903C41.1387 29.4936 41.3567 26.9801 40.859 24.4639C40.385 22.0667 40.7355 19.5055 40.7268 17.0166C40.7228 15.8267 40.7261 14.637 40.7261 13.4393C39.2347 13.4393 38.0318 13.4393 36.6401 13.4393C36.6401 14.0255 36.6341 14.5387 36.6408 15.0519C36.6809 18.0172 36.7808 20.9834 36.7253 23.9472C36.7109 24.7056 36.3915 25.626 35.8873 26.1713C34.9606 27.1739 35.0518 27.9745 35.9424 28.9988C36.1068 28.8422 36.241 28.7076 36.3823 28.5815C37.1403 27.9032 37.9308 27.8658 38.619 28.6234C39.3145 29.3904 39.0188 30.0664 38.4545 30.8732C37.7913 31.8217 37.4114 32.9674 36.7163 34.4326ZM40.8744 12.6867C40.7776 10.528 40.6876 8.50841 40.5958 6.45836C39.1566 6.45836 37.8656 6.45836 36.2286 6.45836C36.3357 8.58479 36.437 10.5947 36.5422 12.6867C38.1795 12.6867 39.5788 12.6867 40.8744 12.6867ZM38.8257 29.5474C38.1752 29.1561 37.7704 28.7258 37.3849 28.7426C37.0926 28.7542 36.5337 29.4455 36.6074 29.6426C36.751 30.027 37.225 30.4564 37.619 30.5216C37.8907 30.5664 38.2583 30.0301 38.8257 29.5474Z" fill="#2C9471" stroke="#2C9471" stroke-width="0.448" stroke-miterlimit="10"/>
<path fill-rule="evenodd" clip-rule="evenodd" d="M45.9306 9.09439C45.1396 9.59862 44.6983 10.0952 44.2694 10.0845C43.9291 10.076 43.3461 9.44585 43.3463 9.09215C43.3465 8.73823 43.9305 8.10835 44.2703 8.10073C44.6995 8.09087 45.1399 8.58838 45.9306 9.09439Z" fill="#2C9471" stroke="#2C9471" stroke-width="0.448" stroke-miterlimit="10"/>
</svg>
